<svg xmlns="http://www.w3.org/2000/svg" viewBox="0 0 120 120" xml:space="preserve"><path fill="#FB0" d="m62.483 83.863 1.521-4.786-4.434-2.055-4.447 2.056 1.517 4.785z"/><path fill="#7CBB00" d="m71.855 72.115-12.292 4.904-12.292-4.904 3.084 9.167 9.208-4.257 9.242 4.272z"/><g fill="#1A171B"><path d="M78.617 84.432a.733.733 0 0 0-.733.732v5.605a.733.733 0 0 0 1.465 0v-5.605a.732.732 0 0 0-.732-.732zM40.51 84.432a.733.733 0 0 0-.733.732v5.605a.733.733 0 0 0 1.466 0v-5.605a.733.733 0 0 0-.733-.732z"/><path d="m82.306 73.394-8.676-1.498a6.219 6.219 0 0 1-1.476-.449 6.205 6.205 0 0 1-3.508-4.17l-.554-2.196c4.239-3.366 7.05-9.153 7.05-15.725 0-9.564-6.262-15.989-15.579-15.989s-15.578 6.425-15.578 15.989c0 6.57 2.81 12.358 7.049 15.724l-.554 2.197a6.202 6.202 0 0 1-3.508 4.17 6.24 6.24 0 0 1-1.477.449l-8.677 1.498a11.133 11.133 0 0 0-9.256 10.993v6.383a.733.733 0 0 0 1.465 0v-6.383a9.67 9.67 0 0 1 8.039-9.549l8.677-1.498a7.592 7.592 0 0 0 1.072-.275l2.843 8.452a.737.737 0 0 0 .695.499.722.722 0 0 0 .307-.068l4.014-1.856 1.2 3.782-1.903 6.694a.733.733 0 0 0 1.41.401l1.812-6.375 4.734.001 1.814 6.374a.732.732 0 1 0 1.409-.401l-1.905-6.693 1.203-3.783 4.047 1.869a.719.719 0 0 0 .598.008.726.726 0 0 0 .405-.442l2.812-8.463c.35.115.706.213 1.07.275l8.674 1.498a9.67 9.67 0 0 1 8.041 9.549v6.383a.732.732 0 0 0 1.465 0v-6.383a11.127 11.127 0 0 0-9.254-10.992zM45.451 49.356c0-8.823 5.539-14.523 14.112-14.523s14.112 5.7 14.112 14.523c0 9.564-6.33 17.348-14.112 17.348-7.781-.001-14.112-7.784-14.112-17.348zM51.9 67.635l.414-1.641c2.168 1.383 4.632 2.174 7.249 2.174 2.616 0 5.081-.791 7.249-2.174l.414 1.641a7.635 7.635 0 0 0 2.954 4.359L59.563 76.23l-10.616-4.234a7.65 7.65 0 0 0 2.953-4.361zm-3.429 5.748 9.246 3.688-6.928 3.204-2.318-6.892zm13.476 9.746h-4.77l-1.161-3.656 3.547-1.641 3.547 1.639-1.163 3.658zm6.421-2.842L61.41 77.07l9.252-3.689-2.294 6.906zM28.297 61.424a.733.733 0 0 0 .732-.733V40.737a.732.732 0 0 0-1.465 0v19.954a.732.732 0 0 0 .733.733zM28.297 70.104a.733.733 0 0 0 .732-.733v-3.794a.732.732 0 0 0-1.465 0v3.794a.732.732 0 0 0 .733.733z"/><path d="M34.159 67.172a.733.733 0 0 0 .733-.733V53.326a.733.733 0 1 0-1.466 0v13.112c0 .406.328.734.733.734zM34.159 49.172a.733.733 0 0 0 .733-.732v-3.794a.733.733 0 1 0-1.466 0v3.794c0 .404.328.732.733.732zM90.83 36.096a.732.732 0 0 0-.732.732v13.113a.732.732 0 0 0 1.465 0V36.828a.733.733 0 0 0-.733-.732zM90.83 54.094a.733.733 0 0 0-.732.733v17.475a.733.733 0 1 0 1.465 0V54.827a.733.733 0 0 0-.733-.733zM84.968 67.172a.733.733 0 0 0 .732-.733v-7.25a.733.733 0 0 0-1.465 0v7.25a.732.732 0 0 0 .733.733zM84.968 55.035a.733.733 0 0 0 .732-.733V41.714a.733.733 0 0 0-1.465 0v12.589a.731.731 0 0 0 .733.732z"/></g><path fill="#00A1F1" d="m74.209 36.445 9.775-2.347-24.428-5.861-24.426 5.861 9.771 2.346v5.996c0 2.621 6.562 4.746 14.656 4.746 8.095 0 14.656-2.125 14.656-4.746 0-.019-.004-.037-.004-.056v-5.939z"/><path fill="#FB0" d="M69.15 48.526a2.932 2.932 0 1 1-5.865 0 2.932 2.932 0 0 1 5.865 0z"/><path fill="#1A171B" d="m84.154 33.385-24.427-5.861a.732.732 0 0 0-.342 0l-24.427 5.861a.734.734 0 0 0 0 1.426l24.427 5.863a.707.707 0 0 0 .342 0l5.759-1.383v5.645a3.67 3.67 0 0 0-2.932 3.59 3.669 3.669 0 0 0 3.664 3.664 3.668 3.668 0 0 0 3.664-3.664c0-1.77-1.26-3.25-2.931-3.59V38.94l17.202-4.129a.731.731 0 0 0 .562-.713.731.731 0 0 0-.561-.713zM68.418 48.526a2.2 2.2 0 0 1-2.199 2.199 2.2 2.2 0 0 1 0-4.397 2.2 2.2 0 0 1 2.199 2.198zm-2.041-10.955-6.389-4.657a.733.733 0 0 0-.864 1.185l5.381 3.922-4.949 1.188L38.269 34.1l21.287-5.108L80.843 34.1l-14.466 3.471z"/></svg>